#Comment line ignore any data following # character 
#Hierarchical Translation and Rotation (.htr) file 
[Header]	
#Header keywords are followed by a single value 
FileType HTR		#Single word string
DataType HTRS		#Translation followed by rotation and scale data
FileVersion 1		#integer
NumSegments 64		#integer
NumFrames 3		#integer
DataFrameRate 30		#integer, data frame rate in this file
EulerRotationOrder ZYX
CalibrationUnits mm
RotationUnits Degrees
GlobalAxisofGravity Y
BoneLengthAxis Y
ScaleFactor 1.00
[SegmentNames&Hierarchy]
#CHILD	PARENT
Pinger_Root GLOBAL
Pelvis Pinger_Root
L_Hip Pelvis
R_Hip Pelvis
Rear_Leg01 Pelvis
Spine1 Pelvis
L_Leg01 L_Hip
L_Leg02 L_Leg01
L_Leg03 L_Leg02
L_Foot L_Leg03
L_Toe1_01 L_Foot
L_Toe2_01 L_Foot
L_Toe3_01 L_Foot
planeAlignerLeft L_Foot
L_Toe1_02 L_Toe1_01
L_Toe1_03 L_Toe1_02
L_Toe2_02 L_Toe2_01
L_Toe2_03 L_Toe2_02
L_Toe3_02 L_Toe3_01
L_Toe3_03 L_Toe3_02
planeLockWeightLeft planeAlignerLeft
R_Leg01 R_Hip
R_Leg02 R_Leg01
R_Leg03 R_Leg02
R_Foot R_Leg03
planeAlignerRight R_Foot
R_Toe1_01 R_Foot
R_Toe2_01 R_Foot
R_Toe3_01 R_Foot
planeLockWeightRight planeAlignerRight
R_Toe1_02 R_Toe1_01
R_Toe1_03 R_Toe1_02
R_Toe2_02 R_Toe2_01
R_Toe2_03 R_Toe2_02
R_Toe3_02 R_Toe3_01
R_Toe3_03 R_Toe3_02
Rear_Leg02 Rear_Leg01
Rear_Leg03 Rear_Leg02
Rear_Leg04 Rear_Leg03
Rear_Foot Rear_Leg04
planeAlignerCenter Rear_Foot
Rear_Toe1_01 Rear_Foot
Rear_Toe2_01 Rear_Foot
Rear_Toe3_01 Rear_Foot
planeLockWeightCenter planeAlignerCenter
Rear_Toe1_02 Rear_Toe1_01
Rear_Toe1_03 Rear_Toe1_02
Rear_Toe2_02 Rear_Toe2_01
Rear_Toe2_03 Rear_Toe2_02
Rear_Toe3_02 Rear_Toe3_01
Rear_Toe3_03 Rear_Toe3_02
Back_Bone Spine1
Head Spine1
Motor_Bone Back_Bone
Ping_Mechanism Back_Bone
BN_LookIK Head
bottomMouth Head
L_Mouth01 Head
L_mouthFront Head
mouthGun Head
R_Mouth01 Head
R_mouthFront Head
TopMouth Head
weapon_bone Head
[BasePosition]
#SegmentName Tx, Ty, Tz, Rx, Ry, Rz, BoneLength
Pinger_Root 0.000000 0.000000 0.000000 -90.000000 0.000000 0.000000 10.000000 
Pelvis 0.000000 0.000000 0.000000 0.000000 0.000000 0.000000 10.000000 
L_Hip 0.000000 0.000000 0.000000 0.000000 0.000000 0.000000 10.000000 
R_Hip 0.000000 0.000000 0.000000 0.000000 0.000000 0.000000 10.000000 
Rear_Leg01 0.000000 0.000000 0.000000 0.000000 0.000000 0.000000 10.000000 
Spine1 0.000000 0.000000 0.000000 0.000000 0.000000 0.000000 10.000000 
L_Leg01 0.000000 0.000000 0.000000 0.000000 0.000000 0.000000 10.000000 
L_Leg02 0.000000 0.000000 0.000000 0.000000 0.000000 0.000000 10.000000 
L_Leg03 0.000000 0.000000 0.000000 0.000000 0.000000 0.000000 10.000000 
L_Foot 0.000000 0.000000 0.000000 0.000000 0.000000 0.000000 10.000000 
L_Toe1_01 0.000000 0.000000 0.000000 0.000000 0.000000 0.000000 10.000000 
L_Toe2_01 0.000000 0.000000 0.000000 0.000000 0.000000 0.000000 10.000000 
L_Toe3_01 0.000000 0.000000 0.000000 0.000000 0.000000 0.000000 10.000000 
planeAlignerLeft 0.000000 0.000000 0.000000 0.000000 0.000000 0.000000 10.000000 
L_Toe1_02 0.000000 0.000000 0.000000 0.000000 0.000000 0.000000 10.000000 
L_Toe1_03 0.000000 0.000000 0.000000 0.000000 0.000000 0.000000 10.000000 
L_Toe2_02 0.000000 0.000000 0.000000 0.000000 0.000000 0.000000 10.000000 
L_Toe2_03 0.000000 0.000000 0.000000 0.000000 0.000000 0.000000 10.000000 
L_Toe3_02 0.000000 0.000000 0.000000 0.000000 0.000000 0.000000 10.000000 
L_Toe3_03 0.000000 0.000000 0.000000 0.000000 0.000000 0.000000 10.000000 
planeLockWeightLeft 0.000000 0.000000 0.000000 0.000000 0.000000 0.000000 10.000000 
R_Leg01 0.000000 0.000000 0.000000 0.000000 0.000000 0.000000 10.000000 
R_Leg02 0.000000 0.000000 0.000000 0.000000 0.000000 0.000000 10.000000 
R_Leg03 0.000000 0.000000 0.000000 0.000000 0.000000 0.000000 10.000000 
R_Foot 0.000000 0.000000 0.000000 0.000000 0.000000 0.000000 10.000000 
planeAlignerRight 0.000000 0.000000 0.000000 0.000000 0.000000 0.000000 10.000000 
R_Toe1_01 0.000000 0.000000 0.000000 0.000000 0.000000 0.000000 10.000000 
R_Toe2_01 0.000000 0.000000 0.000000 0.000000 0.000000 0.000000 10.000000 
R_Toe3_01 0.000000 0.000000 0.000000 0.000000 0.000000 0.000000 10.000000 
planeLockWeightRight 0.000000 0.000000 0.000000 0.000000 0.000000 0.000000 10.000000 
R_Toe1_02 0.000000 0.000000 0.000000 0.000000 0.000000 0.000000 10.000000 
R_Toe1_03 0.000000 0.000000 0.000000 0.000000 0.000000 0.000000 10.000000 
R_Toe2_02 0.000000 0.000000 0.000000 0.000000 0.000000 0.000000 10.000000 
R_Toe2_03 0.000000 0.000000 0.000000 0.000000 0.000000 0.000000 10.000000 
R_Toe3_02 0.000000 0.000000 0.000000 0.000000 0.000000 0.000000 10.000000 
R_Toe3_03 0.000000 0.000000 0.000000 0.000000 0.000000 0.000000 10.000000 
Rear_Leg02 0.000000 0.000000 0.000000 0.000000 0.000000 0.000000 10.000000 
Rear_Leg03 0.000000 0.000000 0.000000 0.000000 0.000000 0.000000 10.000000 
Rear_Leg04 0.000000 0.000000 0.000000 0.000000 0.000000 0.000000 10.000000 
Rear_Foot 0.000000 0.000000 0.000000 0.000000 0.000000 0.000000 10.000000 
planeAlignerCenter 0.000000 0.000000 0.000000 0.000000 0.000000 0.000000 10.000000 
Rear_Toe1_01 0.000000 0.000000 0.000000 0.000000 0.000000 0.000000 10.000000 
Rear_Toe2_01 0.000000 0.000000 0.000000 0.000000 0.000000 0.000000 10.000000 
Rear_Toe3_01 0.000000 0.000000 0.000000 0.000000 0.000000 0.000000 10.000000 
planeLockWeightCenter 0.000000 0.000000 0.000000 0.000000 0.000000 0.000000 10.000000 
Rear_Toe1_02 0.000000 0.000000 0.000000 0.000000 0.000000 0.000000 10.000000 
Rear_Toe1_03 0.000000 0.000000 0.000000 0.000000 0.000000 0.000000 10.000000 
Rear_Toe2_02 0.000000 0.000000 0.000000 0.000000 0.000000 0.000000 10.000000 
Rear_Toe2_03 0.000000 0.000000 0.000000 0.000000 0.000000 0.000000 10.000000 
Rear_Toe3_02 0.000000 0.000000 0.000000 0.000000 0.000000 0.000000 10.000000 
Rear_Toe3_03 0.000000 0.000000 0.000000 0.000000 0.000000 0.000000 10.000000 
Back_Bone 0.000000 0.000000 0.000000 0.000000 0.000000 0.000000 10.000000 
Head 0.000000 0.000000 0.000000 0.000000 0.000000 0.000000 10.000000 
Motor_Bone 0.000000 0.000000 0.000000 0.000000 0.000000 0.000000 10.000000 
Ping_Mechanism 0.000000 0.000000 0.000000 0.000000 0.000000 0.000000 10.000000 
BN_LookIK 0.000000 0.000000 0.000000 0.000000 0.000000 0.000000 10.000000 
bottomMouth 0.000000 0.000000 0.000000 0.000000 0.000000 0.000000 10.000000 
L_Mouth01 0.000000 0.000000 0.000000 0.000000 0.000000 0.000000 10.000000 
L_mouthFront 0.000000 0.000000 0.000000 0.000000 0.000000 0.000000 10.000000 
mouthGun 0.000000 0.000000 0.000000 0.000000 0.000000 0.000000 10.000000 
R_Mouth01 0.000000 0.000000 0.000000 0.000000 0.000000 0.000000 10.000000 
R_mouthFront 0.000000 0.000000 0.000000 0.000000 0.000000 0.000000 10.000000 
TopMouth 0.000000 0.000000 0.000000 0.000000 0.000000 0.000000 10.000000 
weapon_bone 0.000000 0.000000 0.000000 0.000000 0.000000 0.000000 10.000000 
#Beginning of Data. Separated by tabs
#Fr	Tx	Ty	Tz	Rx	Ry	Rz	SF
[Pinger_Root]
41 -0.000020 -2500.000000 0.000000 -0.000075 -0.000000 -0.000020 2500.000000
42 -0.000020 -2500.000000 0.000000 -0.000075 -0.000000 -0.000020 2500.000000
43 -0.000020 -2500.000000 0.000000 -0.000075 -0.000000 -0.000020 2500.000000
[Pelvis]
41 371.303772 1033.588013 4412.198730 -112.659302 -74.940445 127.051903 4546.830566
42 357.621368 1031.054688 4411.471191 -111.599236 -73.704155 123.233337 4544.452637
43 343.938904 1028.521484 4410.743652 -110.887299 -72.452179 119.754295 4542.115234
[L_Hip]
41 5.766392 125.831482 872.656799 -178.253311 -81.787758 87.381340 881.701050
42 5.766392 125.831482 872.656799 -178.253311 -81.787758 87.381340 881.701050
43 5.766392 125.831482 872.656799 -178.253311 -81.787758 87.381340 881.701050
[R_Hip]
41 5.765438 125.836372 -872.654907 -1.746690 81.787712 87.381248 881.699829
42 5.765438 125.836372 -872.654907 -1.746690 81.787712 87.381248 881.699829
43 5.765438 125.836372 -872.654907 -1.746690 81.787712 87.381248 881.699829
[Rear_Leg01]
41 -192.298416 -925.602966 -0.001907 157.060440 -44.714252 -169.378784 945.367432
42 -192.298416 -925.602966 -0.001907 154.319870 -42.588291 -168.557098 945.367432
43 -192.298416 -925.602966 -0.001907 151.708710 -40.436901 -167.896530 945.367432
[Spine1]
41 290.604584 5.007505 0.000477 -12.645643 12.927299 16.651735 290.647736
42 290.604584 5.007505 0.000477 -9.944056 11.679674 14.972236 290.647736
43 290.604584 5.007505 0.000477 -7.587353 10.412072 13.139156 290.647736
[L_Leg01]
41 761.932007 -0.002384 -0.069261 56.924454 -52.925640 -51.416599 761.932068
42 761.932007 -0.002384 -0.069261 46.292088 -56.324814 -41.552990 761.932068
43 761.932007 -0.002384 -0.069261 39.025837 -58.228909 -32.504215 761.932068
[L_Leg02]
41 1441.140503 -0.000954 -0.000715 3.722287 0.378741 -111.125450 1441.140503
42 1441.140503 -0.000954 -0.000715 3.163897 0.133901 -117.349861 1441.140503
43 1441.140503 -0.000954 -0.000715 2.448655 -0.078216 -120.832085 1441.140503
[L_Leg03]
41 1686.963989 -0.000715 -0.000954 -0.069887 0.036377 129.692719 1686.963989
42 1686.963989 -0.000715 -0.000954 -0.057729 0.029769 125.970192 1686.963989
43 1686.963989 -0.000715 -0.000954 -0.043023 0.019261 121.171135 1686.963989
[L_Foot]
41 3041.570068 -30.715107 11.297464 2.584763 6.415190 20.120825 3041.746094
42 3041.570068 -30.715107 11.297464 3.202967 5.583046 24.442921 3041.746094
43 3041.570068 -30.715107 11.297464 -1.587471 5.169860 30.185503 3041.746094
[L_Toe1_01]
41 -188.216690 -224.732346 -21.137953 86.707550 5.894537 -143.017563 293.899567
42 -188.216690 -224.732346 -21.137953 86.918800 6.388275 -144.083389 293.899567
43 -188.216690 -224.732346 -21.137953 88.856346 -1.360552 -150.226898 293.899567
[L_Toe2_01]
41 200.746536 -219.926590 148.838394 -73.764885 -4.195985 -72.348206 332.896027
42 200.746536 -219.926590 148.838394 -73.850548 -4.363488 -71.684258 332.896027
43 200.746536 -219.926590 148.838394 -74.717804 -8.420634 -61.843334 332.896027
[L_Toe3_01]
41 188.832520 -219.859131 -191.078659 -109.827843 1.972858 -73.080727 347.140900
42 188.832520 -219.859131 -191.078659 -109.489830 1.256871 -72.320549 347.140900
43 188.832520 -219.859131 -191.078659 -109.672035 9.084070 -64.925888 347.140900
[planeAlignerLeft]
41 146.808655 -774.193726 14.404735 0.000000 -89.884651 -90.107910 788.121948
42 171.003036 -774.545227 21.689569 0.000000 -89.881310 -90.110580 793.494080
43 190.408951 -774.097290 31.611404 0.000000 -89.871796 -90.113220 797.797852
[L_Toe1_02]
41 413.761139 0.000477 0.000000 0.001433 -19.920816 0.001433 413.761139
42 413.761139 0.000477 0.000000 0.001423 -21.148434 0.001423 413.761139
43 413.761139 0.000477 0.000000 0.001413 -22.376053 0.001413 413.761139
[L_Toe1_03]
41 464.317322 0.000358 -0.000089 179.815140 89.271530 179.815140 464.317322
42 464.317322 0.000358 -0.000089 0.030418 85.577560 0.030418 464.317322
43 464.317322 0.000358 -0.000089 0.015410 81.264488 0.015410 464.317322
[L_Toe2_02]
41 342.235809 -0.000477 0.000238 0.001184 -75.154655 0.001184 342.235809
42 342.235809 -0.000477 0.000238 0.001185 -74.295097 0.001185 342.235809
43 342.235809 -0.000477 0.000238 0.001197 -67.328300 0.001197 342.235809
[L_Toe2_03]
41 420.210846 -0.000715 0.000000 -179.982986 86.488380 -179.979477 420.210846
42 420.210846 -0.000715 0.000000 -179.898376 89.362038 -179.894882 420.210846
43 420.210846 -0.000715 0.000000 0.008385 73.909111 0.008385 420.210846
[L_Toe3_02]
41 329.270111 0.000954 0.000000 0.001179 -79.465408 0.001179 329.270111
42 329.270111 0.000954 0.000000 0.001179 -78.844498 0.001179 329.270111
43 329.270111 0.000954 0.000000 0.001180 -77.817474 0.001180 329.270111
[L_Toe3_03]
41 439.137451 -0.001907 0.000954 -179.993240 82.248299 -179.989746 439.137451
42 439.137451 -0.001907 0.000954 -179.989792 84.490532 -179.986298 439.137451
43 439.137451 -0.001907 0.000954 -179.972351 87.760078 -179.968842 439.137451
[planeLockWeightLeft]
41 156.247696 0.000000 -0.000381 -0.011826 -0.004376 0.005620 156.247696
42 499.994812 0.000305 -0.000277 -0.011826 -0.004376 0.005620 499.994812
43 843.744812 0.000610 -0.000172 -0.011826 -0.004376 0.005620 843.744812
[R_Leg01]
41 761.455627 -0.001907 -0.000358 142.405380 -31.480284 54.250866 761.455688
42 761.455627 -0.001907 -0.000358 142.190231 -35.424774 53.647491 761.455688
43 761.455627 -0.001907 -0.000358 141.760498 -38.845692 53.173550 761.455688
[R_Leg02]
41 1441.140625 0.000000 -0.000238 -0.434257 -0.030286 -130.477066 1441.140625
42 1441.140625 0.000000 -0.000238 -0.458346 -0.033551 -131.378387 1441.140625
43 1441.140625 0.000000 -0.000238 -0.482316 -0.040912 -131.850021 1441.140625
[R_Leg03]
41 1686.963989 0.000954 0.001431 0.032954 -0.015913 119.507523 1686.963989
42 1686.963989 0.000954 0.001431 0.035571 -0.016816 120.116913 1686.963989
43 1686.963989 0.000954 0.001431 0.038179 -0.017747 120.726303 1686.963989
[R_Foot]
41 3041.560059 -30.531288 -11.204481 12.948855 -5.877655 60.962997 3041.734131
42 3041.560059 -30.531288 -11.204481 12.199030 -5.564167 60.096310 3041.734131
43 3041.560059 -30.531288 -11.204481 11.444912 -5.262027 59.226006 3041.734131
[planeAlignerRight]
41 -41.850304 -759.412170 -109.159599 0.000000 -89.878052 -90.081230 768.358032
42 -40.173973 -783.993042 -96.625252 0.000000 -89.874886 -90.083138 790.945923
43 -37.700844 -800.901550 -84.832336 0.000000 -89.871796 -90.085030 806.263672
[R_Toe1_01]
41 -188.383347 -224.864899 21.052242 91.049477 0.995540 -148.728287 294.101532
42 -188.383347 -224.864899 21.052242 91.076958 0.393931 -146.765091 294.101532
43 -188.383347 -224.864899 21.052242 91.082458 -0.156949 -145.472580 294.101532
[R_Toe2_01]
41 200.637817 -220.002121 -148.787384 -101.620415 3.571565 -53.082283 332.857574
42 200.637817 -220.002121 -148.787384 -101.642395 2.746031 -54.220253 332.857574
43 200.637817 -220.002121 -148.787384 -101.595924 2.040108 -54.927879 332.857574
[R_Toe3_01]
41 188.606735 -220.092957 191.126343 -60.180553 -30.513477 -69.085358 347.192566
42 188.606735 -220.092957 191.126343 -59.700012 -30.049841 -70.551468 347.192566
43 188.606735 -220.092957 191.126343 -59.381077 -29.856895 -71.421326 347.192566
[planeLockWeightRight]
41 999.999756 0.000083 -0.000369 -0.011823 -0.004379 -0.000027 999.999756
42 999.999756 0.000089 -0.000371 -0.011823 -0.004379 -0.000027 999.999756
43 999.999817 0.000094 -0.000373 -0.011823 -0.004379 -0.000027 999.999817
[R_Toe1_02]
41 413.762085 0.000477 -0.000119 0.001385 -25.870827 0.001385 413.762085
42 413.762085 0.000477 -0.000119 0.001387 -25.571615 0.001387 413.762085
43 413.762085 0.000477 -0.000119 0.001389 -25.272394 0.001389 413.762085
[R_Toe1_03]
41 464.317810 0.000000 0.001088 0.003321 48.594135 0.003321 464.317810
42 464.317810 0.000000 0.001088 0.003062 44.933464 0.003062 464.317810
43 464.317810 0.000000 0.001088 0.002920 42.604305 0.002920 464.317810
[R_Toe2_02]
41 342.234741 -0.000954 0.000238 0.001200 -65.713524 0.001200 342.234741
42 342.234741 -0.000954 0.000238 0.001204 -64.152138 0.001204 342.234741
43 342.234741 -0.000954 0.000238 0.001208 -62.590782 0.001208 342.234741
[R_Toe2_03]
41 420.210846 0.000715 -0.000268 -0.005193 70.650764 -0.001646 420.210846
42 420.210846 0.000715 -0.000268 -0.004728 67.492729 -0.001162 420.210846
43 420.210846 0.000715 -0.000268 -0.004449 65.024101 -0.000867 420.210846
[R_Toe3_02]
41 329.270355 -0.000477 -0.000954 -0.000582 -71.986549 -0.000582 329.270355
42 329.270355 -0.000477 -0.000954 -0.001472 -69.832130 -0.001472 329.270355
43 329.270355 -0.000477 -0.000954 -0.002368 -67.679146 -0.002368 329.270355
[R_Toe3_03]
41 439.137939 0.000238 0.001431 0.010839 77.567833 0.010839 439.137939
42 439.137939 0.000238 0.001431 0.007912 72.940331 0.007912 439.137939
43 439.137939 0.000238 0.001431 0.006465 69.082275 0.006465 439.137939
[Rear_Leg02]
41 1162.777710 -0.029802 0.005960 -1.622418 59.410892 -120.834023 1162.777710
42 1162.777710 -0.029802 0.005960 -1.218538 59.423420 -119.209496 1162.777710
43 1162.777710 -0.029802 0.005960 -0.929883 59.689121 -117.913284 1162.777710
[Rear_Leg03]
41 607.192505 -0.013351 -0.073195 0.010179 -0.005705 74.896133 607.192505
42 607.192505 -0.013351 -0.073195 0.010186 -0.005693 74.755127 607.192505
43 607.192505 -0.013351 -0.073195 0.010193 -0.005680 74.614136 607.192505
[Rear_Leg04]
41 995.874512 -0.020504 -0.011921 -0.045696 -0.016741 83.175537 995.874573
42 995.874512 -0.020504 -0.011921 -0.045647 -0.016875 82.838745 995.874573
43 995.874512 -0.020504 -0.011921 -0.045597 -0.017009 82.501945 995.874573
[Rear_Foot]
41 3096.176270 -0.067472 -0.041425 84.429497 43.981312 -104.132019 3096.176270
42 3096.176270 -0.067472 -0.041425 83.158295 43.323498 -105.643372 3096.176270
43 3096.176270 -0.067472 -0.041425 81.924995 42.642017 -107.117958 3096.176270
[planeAlignerCenter]
41 -6.464379 94.136093 -714.634644 0.001666 -0.001653 179.548279 720.837036
42 -0.663808 90.923203 -709.800354 0.001663 -0.001656 179.773315 715.600464
43 1.148349 87.011093 -708.412964 0.001660 -0.001660 179.998337 713.737427
[Rear_Toe1_01]
41 0.653352 83.966492 -371.173737 0.244689 23.177629 89.864265 380.553192
42 0.653352 83.966492 -371.173737 0.153098 22.793127 89.945297 380.553192
43 0.653352 83.966492 -371.173737 0.061181 22.408758 90.026802 380.553192
[Rear_Toe2_01]
41 178.200760 -294.826019 -362.060547 0.824787 47.369122 -70.607216 499.765686
42 178.200760 -294.826019 -362.060547 1.071360 47.097889 -69.757881 499.765686
43 178.200760 -294.826019 -362.060547 1.115052 47.015720 -69.543556 499.765686
[Rear_Toe3_01]
41 -153.359680 -308.780914 -362.060852 -1.949572 47.392979 -114.509560 499.952881
42 -153.359680 -308.780914 -362.060852 -1.568121 47.115234 -113.444344 499.952881
43 -153.359680 -308.780914 -362.060852 -1.382120 47.022884 -112.974953 499.952881
[planeLockWeightCenter]
41 1000.000488 0.000499 -0.000080 -0.011814 -0.004373 -0.000015 1000.000488
42 1000.000488 0.000505 -0.000081 -0.011814 -0.004373 -0.000015 1000.000488
43 1000.000488 0.000511 -0.000082 -0.011814 -0.004373 -0.000015 1000.000488
[Rear_Toe1_02]
41 379.707825 0.194073 0.000477 -0.003425 -33.415054 0.003952 379.707855
42 379.707825 0.194073 0.000477 -0.003733 -33.453976 0.003649 379.707855
43 379.707825 0.194073 0.000477 -0.004040 -33.492878 0.003346 379.707855
[Rear_Toe1_03]
41 500.129700 0.165701 0.000119 0.004774 68.818817 0.005282 500.129761
42 500.129700 0.165701 0.000119 0.006734 69.924911 0.006734 500.129761
43 500.129700 0.165701 0.000119 0.007045 70.820549 0.007045 500.129761
[Rear_Toe2_02]
41 340.494507 0.000238 -0.000954 -0.033835 -86.052650 0.033851 340.494507
42 340.494507 0.000238 -0.000954 -0.015770 -85.917404 0.016953 340.494507
43 340.494507 0.000238 -0.000954 0.001174 -85.782066 0.001175 340.494507
[Rear_Toe2_03]
41 433.103577 0.000000 0.000238 179.988510 78.280113 179.988510 433.103546
42 433.103577 0.000000 0.000238 179.988037 78.734390 179.988037 433.103546
43 433.103577 0.000000 0.000238 179.987549 79.188515 179.987549 433.103546
[Rear_Toe3_02]
41 340.494141 -0.000358 -0.000477 0.001174 -85.588692 0.001174 340.494171
42 340.494141 -0.000358 -0.000477 0.001174 -85.638115 0.001174 340.494171
43 340.494141 -0.000358 -0.000477 0.001174 -85.687569 0.001174 340.494171
[Rear_Toe3_03]
41 433.103577 0.001431 -0.000238 -179.995605 79.284851 -179.992081 433.103546
42 433.103577 0.001431 -0.000238 -179.995697 79.137222 -179.992172 433.103546
43 433.103577 0.001431 -0.000238 -179.995499 79.464790 -179.991989 433.103546
[Back_Bone]
41 1312.175781 -701.934692 0.000954 -1.873884 3.184464 -86.519646 1488.125488
42 1312.175781 -701.934692 0.000954 -1.286546 3.196599 -85.322670 1488.125488
43 1312.175781 -701.934692 0.000954 -0.699001 3.196478 -84.125443 1488.125488
[Head]
41 1406.159424 809.709290 0.001431 3.067186 0.516446 1.841181 1622.625488
42 1406.159424 809.709290 0.001431 2.768307 0.780662 2.989355 1622.625488
43 1406.159424 809.709290 0.001431 2.474760 1.050809 4.136224 1622.625488
[Motor_Bone]
41 1158.364380 -417.834747 0.000477 2.270557 -1.149508 -107.133392 1231.419434
42 1158.364380 -417.834747 0.000477 1.115501 -1.114906 -107.103577 1231.419434
43 1158.364380 -417.834747 0.000477 -1.031280 -1.047917 -107.028992 1231.419434
[Ping_Mechanism]
41 1271.319580 -456.578491 -45.482094 0.000103 -0.000053 82.120995 1351.586548
42 1278.900391 -460.387909 -44.460693 0.000103 -0.000053 82.120995 1359.970581
43 1286.481201 -464.197296 -43.439289 0.000103 -0.000053 82.120995 1368.356567
[BN_LookIK]
41 193.241119 1380.371704 -0.002861 0.000000 89.965736 -31.038179 1393.832153
42 193.241119 1380.371704 -0.002861 0.000000 89.965736 -31.038179 1393.832153
43 193.241119 1380.371704 -0.002861 0.000000 89.965736 -31.038179 1393.832153
[bottomMouth]
41 -435.092926 615.759399 -0.000954 -0.000022 0.000016 73.527184 753.966492
42 -435.092926 615.759399 -0.000954 -0.000022 0.000016 73.527184 753.966492
43 -435.092926 615.759399 -0.000954 -0.000022 0.000016 73.527184 753.966492
[L_Mouth01]
41 554.440979 7.658243 838.222046 150.204178 23.759130 109.605339 1005.027161
42 554.440979 7.658243 838.222046 150.204178 23.759130 109.605339 1005.027161
43 554.440979 7.658243 838.222046 150.204178 23.759130 109.605339 1005.027161
[L_mouthFront]
41 551.629089 934.514771 339.150421 0.000081 2.804060 79.119301 1136.941284
42 551.629089 934.514771 339.150421 0.000081 2.804060 79.119301 1136.941284
43 551.629089 934.514771 339.150421 0.000081 2.804060 79.119301 1136.941284
[mouthGun]
41 55.332661 1627.420898 0.000000 0.000023 0.000009 -11.038128 1628.361328
42 55.332661 1627.420898 0.000000 0.000023 0.000009 -11.038128 1628.361328
43 55.332661 1627.420898 0.000000 0.000023 0.000009 -11.038128 1628.361328
[R_Mouth01]
41 554.442383 7.659197 -838.223938 29.795891 -23.759109 109.605331 1005.029541
42 554.442383 7.659197 -838.223938 29.795891 -23.759109 109.605331 1005.029541
43 554.442383 7.659197 -838.223938 29.795891 -23.759109 109.605331 1005.029541
[R_mouthFront]
41 551.629089 934.514282 -339.151367 0.000029 -2.803930 79.119133 1136.941162
42 551.629089 934.514282 -339.151367 0.000029 -2.803930 79.119133 1136.941162
43 551.629089 934.514282 -339.151367 0.000029 -2.803930 79.119133 1136.941162
[TopMouth]
41 461.269867 -56.106091 -0.008583 -0.000059 -0.000268 92.025169 464.669525
42 461.269867 -56.106091 -0.008583 -0.000059 -0.000268 92.025169 464.669525
43 461.269867 -56.106091 -0.008583 -0.000059 -0.000268 92.025169 464.669525
[weapon_bone]
41 -987.239868 1448.372803 0.001431 0.000000 89.965736 -31.038221 1752.833740
42 -987.239868 1448.372803 0.001431 0.000000 89.965736 -31.038221 1752.833740
43 -987.239868 1448.372803 0.001431 0.000000 89.965736 -31.038221 1752.833740
